<svg width="472" height="431" viewBox="0 0 472 431" fill="none"
    xmlns="http://www.w3.org/2000/svg">
    <path d="M346.5 143.607V287.607C346.5 291.75 343.142 295.107 339 295.107C334.858 295.107 331.5 291.75 331.5 287.607V143.607C331.5 139.465 334.858 136.107 339 136.107C343.142 136.107 346.5 139.465 346.5 143.607ZM318.5 123.607V307.607C318.5 311.75 315.142 315.107 311 315.107C306.858 315.107 303.5 311.75 303.5 307.607V123.607C303.5 119.465 306.858 116.107 311 116.107C315.142 116.107 318.5 119.465 318.5 123.607ZM290.5 115.607V319.607C290.5 323.75 287.142 327.107 283 327.107C278.858 327.107 275.5 323.75 275.5 319.607V115.607C275.5 111.465 278.858 108.107 283 108.107C287.142 108.107 290.5 111.465 290.5 115.607ZM262.5 82.6074V351.607C262.5 355.75 259.142 359.107 255 359.107C250.858 359.107 247.5 355.75 247.5 351.607V82.6074C247.5 78.4653 250.858 75.1074 255 75.1074C259.142 75.1074 262.5 78.4653 262.5 82.6074ZM234.5 93.6074V337.607C234.5 341.75 231.142 345.107 227 345.107C222.858 345.107 219.5 341.75 219.5 337.607V93.6074C219.5 89.4653 222.858 86.1074 227 86.1074C231.142 86.1074 234.5 89.4653 234.5 93.6074ZM206.5 123.607V307.607C206.5 311.75 203.142 315.107 199 315.107C194.858 315.107 191.5 311.75 191.5 307.607V123.607C191.5 119.465 194.858 116.107 199 116.107C203.142 116.107 206.5 119.465 206.5 123.607ZM178.5 133.607V297.607C178.5 301.75 175.142 305.107 171 305.107C166.858 305.107 163.5 301.75 163.5 297.607V133.607C163.5 129.465 166.858 126.107 171 126.107C175.142 126.107 178.5 129.465 178.5 133.607Z" stroke="#B4B2B2"/>
    <path d="M48.0082 275.905C49 272.618 49 271.618 48.0082 268.618C44.5 256.118 41.6775 215.256 44.1794 189.505C46.3988 166.662 50.6599 144.041 61.5101 123.45C68.339 110.491 83.1208 83.0448 88 82.1072C91.6207 81.4114 103 93.6177 109.489 100.321C114.134 105.118 120.207 110.836 125 115.618C125.862 116.478 125.842 117.428 125 118.618C107.112 143.879 96.644 172.248 94.9507 203.232C93.6667 226.726 97.1103 249.584 105.535 271.287C109.021 280.268 104.657 285.094 100.749 290.839C93.6964 301.208 86.1743 311.258 78.8761 321.461C75.3276 326.422 71.797 331.397 68.3749 336.445C67.8369 337.239 67.4298 338.799 67.8423 339.383C68.3331 340.079 69.8446 340.518 70.7934 340.357C92.7238 336.642 114.615 332.687 136.584 329.223C139.225 328.806 142.722 330.33 145.051 332.019C155.718 339.753 165.687 348.522 176.716 355.671C189.241 363.789 203.199 369.328 217.615 373.305C231.265 377.07 245.216 379.489 259.443 378.316C271.716 377.304 283.965 375.848 296.161 374.131C299.847 373.612 300.824 375.037 301.754 377.947C304.319 385.964 307.073 393.92 309.777 401.891C311.802 407.856 314.066 413.753 315.731 419.816C316.035 420.921 314.193 423.702 312.96 423.972C302.775 426.205 292.569 428.968 282.233 429.744C268.408 430.781 254.404 431.025 240.579 430.098C216.61 428.489 193.915 421.239 172.425 410.763C157.902 403.684 144.206 394.911 129.687 387.826C125.118 385.597 119.084 385.966 113.708 385.876C97.8377 385.608 81.9613 385.669 66.0874 385.668C45.3773 385.666 24.666 385.623 3.95818 385.855C-0.0193012 385.899 -0.886061 385.33 0.851548 381.466C10.8255 359.287 20.5884 337.013 30.4864 314.8C36.2204 301.932 42.0739 289.117 48.0082 275.905Z" fill="#565759"/>
    <path d="M190.219 57.0385C193.56 66.7348 190.908 66.9196 178.982 72.8572C164.343 79.7138 157.584 84.8293 146.048 96.1265C143.273 98.8444 141.079 97.6826 138.693 95.6567C129.563 87.9063 120.35 80.2535 111.25 72.4681C102.443 64.9332 102.635 65.0354 110.919 57.154C127.976 40.9258 147.295 28.1015 168.474 17.9423C171.688 16.4008 174.101 16.7818 175.309 20.115C179.134 30.6686 186.445 46.0851 190.219 57.0385Z" fill="#D11C5A"/>
    <path d="M278.914 45.3688C277.011 55.4463 274.615 54.2922 261.315 53.5387C245.201 52.2381 236.796 53.3314 221.177 57.4261C217.42 58.4112 216.09 56.3149 215.022 53.3726C210.933 42.1161 206.724 30.9031 202.679 19.6312C198.765 8.72195 198.88 8.90553 209.981 6.16599C232.839 0.5251 255.975 -1.03832 279.405 0.634916C282.96 0.888769 284.867 2.41556 284.264 5.9093C282.356 16.9712 281.065 33.9849 278.914 45.3688Z" fill="#1A71B5"/>
    <path d="M361.505 80.8187C354.633 88.4315 353.189 86.199 342.225 78.6311C329.145 69.1315 321.399 65.6888 305.932 61.0536C302.212 59.9385 302.168 57.4564 302.787 54.388C305.157 42.6489 307.401 30.884 309.816 19.1543C312.154 7.80215 312.157 8.01902 323.061 11.4596C345.513 18.5439 366.08 29.254 385.213 42.8808C388.116 44.9485 388.949 47.2447 386.616 49.9138C379.227 58.3648 369.268 72.219 361.505 80.8187Z" fill="#26A4DA"/>
    <path d="M415.587 149.847C405.939 153.326 405.717 150.676 399.609 138.837C392.544 124.297 387.333 117.612 375.872 106.239C373.115 103.503 374.245 101.292 376.237 98.8773C383.856 89.6377 391.376 80.316 399.031 71.106C406.439 62.1924 406.34 62.3852 414.338 70.5557C430.809 87.3794 443.908 106.513 454.369 127.545C455.956 130.736 455.609 133.154 452.294 134.41C441.796 138.385 426.485 145.917 415.587 149.847Z" fill="#EE8E1E"/>
    <path d="M426.915 235.858C416.8 234.167 417.903 231.748 418.376 218.435C419.336 202.297 418.065 193.917 413.642 178.388C412.578 174.652 414.646 173.279 417.565 172.148C428.732 167.824 439.854 163.379 451.038 159.097C461.862 154.953 461.681 155.072 464.654 166.113C470.776 188.847 472.828 211.944 471.649 235.404C471.47 238.964 469.984 240.903 466.479 240.374C455.379 238.699 438.342 237.768 426.915 235.858Z" fill="#E85828"/>
    <path d="M396.211 316.643C388.197 310.244 390.339 308.667 397.231 297.267C405.923 283.637 408.892 275.697 412.585 259.979C413.473 256.198 415.948 256.004 419.048 256.437C430.909 258.094 442.788 259.623 454.642 261.326C466.115 262.974 465.899 262.99 463.123 274.082C457.407 296.921 447.958 318.097 435.511 338.018C433.623 341.041 431.381 342.011 428.576 339.843C419.694 332.978 405.264 323.873 396.211 316.643Z" fill="#36AD47"/>
    <path d="M327.339 373.159C323.557 363.626 326.198 363.32 337.839 356.842C352.149 349.321 358.666 343.901 369.671 332.086C372.319 329.244 374.563 330.304 377.04 332.218C386.516 339.542 396.07 346.764 405.518 354.124C414.661 361.247 414.465 361.153 406.551 369.406C390.256 386.4 371.546 400.097 350.855 411.217C347.715 412.904 345.288 412.634 343.928 409.36C339.623 398.993 331.612 383.928 327.339 373.159Z" fill="#87BE3E"/>
</svg>
