<svg width="472" height="432" viewBox="0 0 472 432" fill="none"
    xmlns="http://www.w3.org/2000/svg">
    <path d="M331 144C331 139.582 334.582 136 339 136C343.418 136 347 139.582 347 144V288C347 292.418 343.418 296 339 296C334.582 296 331 292.418 331 288V144Z" fill="#D9D9D9"/>
    <path d="M303 124C303 119.582 306.582 116 311 116C315.418 116 319 119.582 319 124V308C319 312.418 315.418 316 311 316C306.582 316 303 312.418 303 308V124Z" fill="#D9D9D9"/>
    <path d="M275 116C275 111.582 278.582 108 283 108C287.418 108 291 111.582 291 116V320C291 324.418 287.418 328 283 328C278.582 328 275 324.418 275 320V116Z" fill="#D9D9D9"/>
    <path d="M247 83C247 78.5817 250.582 75 255 75C259.418 75 263 78.5817 263 83V352C263 356.418 259.418 360 255 360C250.582 360 247 356.418 247 352V83Z" fill="#D9D9D9"/>
    <path d="M219 94C219 89.5817 222.582 86 227 86C231.418 86 235 89.5817 235 94V338C235 342.418 231.418 346 227 346C222.582 346 219 342.418 219 338V94Z" fill="#D9D9D9"/>
    <path d="M191 124C191 119.582 194.582 116 199 116C203.418 116 207 119.582 207 124V308C207 312.418 203.418 316 199 316C194.582 316 191 312.418 191 308V124Z" fill="#D9D9D9"/>
    <path d="M163 134C163 129.582 166.582 126 171 126C175.418 126 179 129.582 179 134V298C179 302.418 175.418 306 171 306C166.582 306 163 302.418 163 298V134Z" fill="#D9D9D9"/>
    <path d="M48.0082 276.297C49 273.01 49 272.01 48.0082 269.01C44.5 256.51 41.6775 215.648 44.1794 189.898C46.3988 167.055 50.6599 144.434 61.5101 123.843C68.339 110.883 83.1208 83.4374 88 82.4997C91.6207 81.8039 103 94.0103 109.489 100.713C114.134 105.51 120.207 111.229 125 116.01C125.862 116.87 125.842 117.821 125 119.01C107.112 144.272 96.644 172.641 94.9507 203.625C93.6667 227.119 97.1103 249.977 105.535 271.68C109.021 280.661 104.657 285.486 100.749 291.231C93.6964 301.601 86.1743 311.65 78.8761 321.853C75.3276 326.814 71.797 331.79 68.3749 336.838C67.8369 337.631 67.4298 339.192 67.8423 339.776C68.3331 340.471 69.8446 340.91 70.7934 340.75C92.7238 337.034 114.615 333.079 136.584 329.615C139.225 329.199 142.722 330.723 145.051 332.411C155.718 340.146 165.687 348.915 176.716 356.063C189.241 364.181 203.199 369.72 217.615 373.697C231.265 377.463 245.216 379.882 259.443 378.709C271.716 377.697 283.965 376.24 296.161 374.523C299.847 374.004 300.824 375.43 301.754 378.34C304.319 386.356 307.073 394.312 309.777 402.284C311.802 408.249 314.066 414.146 315.731 420.208C316.035 421.314 314.193 424.095 312.96 424.365C302.775 426.597 292.569 429.361 282.233 430.137C268.408 431.174 254.404 431.418 240.579 430.49C216.61 428.882 193.915 421.632 172.425 411.156C157.902 404.077 144.206 395.303 129.687 388.219C125.118 385.99 119.084 386.359 113.708 386.268C97.8377 386 81.9613 386.061 66.0874 386.06C45.3773 386.059 24.666 386.015 3.95818 386.247C-0.0193012 386.292 -0.886061 385.722 0.851548 381.858C10.8255 359.68 20.5884 337.406 30.4864 315.192C36.2204 302.324 42.0739 289.509 48.0082 276.297Z" fill="#565759"/>
    <path d="M190.219 57.4311C193.56 67.1274 190.908 67.3122 178.982 73.2498C164.343 80.1064 157.584 85.2219 146.048 96.5191C143.273 99.2369 141.079 98.0751 138.693 96.0493C129.563 88.2989 120.35 80.6461 111.25 72.8607C102.443 65.3257 102.635 65.4279 110.919 57.5466C127.976 41.3184 147.295 28.494 168.474 18.3349C171.688 16.7934 174.101 17.1744 175.309 20.5076C179.134 31.0611 186.445 46.4777 190.219 57.4311Z" fill="#D11C5A"/>
    <path d="M278.914 45.7614C277.011 55.8389 274.615 54.6847 261.315 53.9313C245.201 52.6307 236.796 53.7239 221.177 57.8187C217.42 58.8038 216.09 56.7075 215.022 53.7652C210.933 42.5087 206.724 31.2957 202.679 20.0237C198.765 9.11453 198.88 9.29811 209.981 6.55857C232.839 0.917678 255.975 -0.645739 279.405 1.02749C282.96 1.28135 284.867 2.80814 284.264 6.30188C282.356 17.3638 281.065 34.3774 278.914 45.7614Z" fill="#1A71B5"/>
    <path d="M361.505 81.2112C354.633 88.824 353.189 86.5916 342.225 79.0236C329.145 69.5241 321.399 66.0813 305.932 61.4461C302.212 60.3311 302.168 57.849 302.787 54.7806C305.157 43.0415 307.401 31.2765 309.816 19.5469C312.154 8.19473 312.157 8.4116 323.061 11.8521C345.513 18.9365 366.08 29.6466 385.213 43.2734C388.116 45.341 388.949 47.6373 386.616 50.3064C379.227 58.7573 369.268 72.6116 361.505 81.2112Z" fill="#26A4DA"/>
    <path d="M415.587 150.239C405.939 153.719 405.717 151.069 399.609 139.229C392.544 124.689 387.333 118.004 375.872 106.631C373.115 103.895 374.245 101.685 376.237 99.2699C383.856 90.0303 391.376 80.7086 399.031 71.4986C406.439 62.585 406.34 62.7777 414.338 70.9483C430.809 87.7719 443.908 106.906 454.369 127.938C455.956 131.129 455.609 133.547 452.294 134.803C441.796 138.778 426.485 146.309 415.587 150.239Z" fill="#EE8E1E"/>
    <path d="M426.915 236.251C416.8 234.56 417.903 232.141 418.376 218.827C419.336 202.69 418.065 194.309 413.642 178.781C412.578 175.045 414.646 173.672 417.565 172.541C428.732 168.216 439.854 163.771 451.038 159.489C461.862 155.346 461.681 155.465 464.654 166.506C470.776 189.24 472.828 212.337 471.649 235.797C471.47 239.357 469.984 241.295 466.479 240.766C455.379 239.092 438.342 238.161 426.915 236.251Z" fill="#E85828"/>
    <path d="M396.211 317.036C388.197 310.636 390.339 309.06 397.231 297.659C405.923 284.029 408.892 276.09 412.585 260.372C413.473 256.59 415.948 256.397 419.048 256.83C430.909 258.486 442.788 260.016 454.642 261.719C466.115 263.366 465.899 263.382 463.123 274.474C457.407 297.314 447.958 318.49 435.511 338.411C433.623 341.433 431.381 342.403 428.576 340.235C419.694 333.371 405.264 324.266 396.211 317.036Z" fill="#36AD47"/>
    <path d="M327.339 373.552C323.557 364.019 326.198 363.713 337.839 357.234C352.149 349.713 358.666 344.293 369.671 332.479C372.319 329.636 374.563 330.696 377.04 332.611C386.516 339.934 396.07 347.156 405.518 354.516C414.661 361.639 414.465 361.546 406.551 369.799C390.256 386.792 371.546 400.489 350.855 411.609C347.715 413.297 345.288 413.027 343.928 409.752C339.623 399.385 331.612 384.321 327.339 373.552Z" fill="#87BE3E"/>
</svg>
