<svg width="258" height="189" viewBox="0 0 258 189" fill="none"
    xmlns="http://www.w3.org/2000/svg">
    <rect width="258" height="189" rx="4" fill="#D9D9D9"/>
    <rect x="16" y="26" width="226" height="137" rx="4" fill="white"/>
    <path d="M58.1055 85.8366C72.0741 93.2392 89.3988 87.9164 96.8014 73.9479C104.204 59.9793 98.8812 42.6546 84.9127 35.252C70.9441 27.8494 53.6194 33.1722 46.2168 47.1407C38.8142 61.1093 44.137 78.434 58.1055 85.8366Z" fill="#E85828"/>
    <path d="M161.408 148.615L20.9855 148.832C20.8097 148.835 20.634 148.821 20.4607 148.792L86.6963 33.6513C87.1005 32.9342 87.6878 32.3373 88.3982 31.9215C89.1086 31.5058 89.9167 31.286 90.7399 31.2847C91.563 31.2835 92.3718 31.5007 93.0835 31.9143C93.7952 32.3279 94.3843 32.923 94.7907 33.6388L161.408 148.615Z" fill="#26A4DA"/>
    <path opacity="0.2" d="M161.408 148.616L113.465 148.689L136.947 114.467L138.637 112.002L139.482 110.769L141.623 114.46L161.408 148.616Z" fill="black"/>
    <path d="M239.595 148.494L118.141 148.682L173.913 67.3961C175.919 64.4732 180.756 64.2839 183.124 66.8312C183.283 67.0049 183.43 67.1886 183.566 67.3812L239.595 148.494Z" fill="#26A4DA"/>
</svg>
