<svg width="642" height="374" viewBox="0 0 642 374" fill="none"
    xmlns="http://www.w3.org/2000/svg">
    <g clip-path="url(#clip0_258_5738)">
        <path d="M451.904 347.568H80.4744C80.0093 347.57 79.5447 347.558 79.0864 347.532L254.756 248.599C258.101 246.676 265.605 246 271.518 247.087C273.139 247.337 274.709 247.847 276.167 248.599L394.063 314.991L399.711 318.168L451.904 347.568Z" fill="#E6E6E6"/>
        <path d="M569.086 347.568H247.83L310.083 318.168L314.563 316.05L395.685 277.735C401.003 275.224 413.797 275.068 420.05 277.262C420.47 277.411 420.859 277.569 421.218 277.735L569.086 347.568Z" fill="#E6E6E6"/>
        <path d="M608.173 349.568H33C30.6139 349.565 28.3263 348.616 26.6391 346.929C24.9518 345.242 24.0027 342.954 24 340.568V33.568C24.0027 31.1819 24.9518 28.8943 26.6391 27.2071C28.3263 25.5198 30.6139 24.5707 33 24.568H608.173C610.559 24.5707 612.847 25.5198 614.534 27.2071C616.221 28.8943 617.17 31.1819 617.173 33.568V340.568C617.17 342.954 616.221 345.242 614.534 346.929C612.847 348.616 610.559 349.565 608.173 349.568ZM33 26.568C31.1441 26.5701 29.3649 27.3082 28.0526 28.6205C26.7402 29.9328 26.0021 31.7121 26 33.568V340.568C26.0021 342.424 26.7402 344.203 28.0526 345.515C29.3649 346.828 31.1441 347.566 33 347.568H608.173C610.029 347.566 611.808 346.828 613.12 345.515C614.433 344.203 615.171 342.424 615.173 340.568V33.568C615.171 31.7121 614.433 29.9328 613.12 28.6205C611.808 27.3082 610.029 26.5701 608.173 26.568H33Z" fill="#CCCCCC"/>
        <path d="M505.896 244.236C549.197 244.236 584.299 200.299 584.299 146.099C584.299 91.8993 549.197 47.9617 505.896 47.9617C462.595 47.9617 427.493 91.8993 427.493 146.099C427.493 200.299 462.595 244.236 505.896 244.236Z" fill="#F2F2F2"/>
        <path d="M506.112 126.365H506.327L510.204 348.65H502.019L506.112 126.365Z" fill="#CCCCCC"/>
        <path d="M519.484 273.525C519.724 273.98 519.773 274.511 519.62 275.002C519.468 275.493 519.127 275.904 518.672 276.143L507.427 282.063L505.621 278.633L516.866 272.713C517.321 272.473 517.852 272.424 518.343 272.576C518.834 272.729 519.245 273.07 519.484 273.525Z" fill="#CCCCCC"/>
        <path d="M280.49 244.236C323.79 244.236 358.893 200.299 358.893 146.099C358.893 91.8993 323.79 47.9617 280.49 47.9617C237.189 47.9617 202.086 91.8993 202.086 146.099C202.086 200.299 237.189 244.236 280.49 244.236Z" fill="#F2F2F2"/>
        <rect width="642" height="374" fill="#D9D9D9"/>
        <path d="M294.078 277.2C293.838 276.745 293.428 276.404 292.937 276.252C292.446 276.099 291.914 276.148 291.459 276.388L283.609 280.521L280.92 126.365H280.705L276.613 348.651H284.797L283.685 284.862L293.266 279.818C293.72 279.579 294.061 279.168 294.214 278.677C294.366 278.186 294.317 277.655 294.078 277.2Z" fill="#CCCCCC"/>
        <path d="M410.255 257.115C410.104 256.83 409.899 256.577 409.651 256.37C409.403 256.164 409.117 256.009 408.809 255.913C408.501 255.818 408.177 255.784 407.856 255.813C407.535 255.843 407.223 255.936 406.937 256.086L396.99 261.323L393.583 65.9908H393.31L388.125 347.651H398.496L397.086 266.824L409.226 260.433C409.511 260.283 409.764 260.078 409.97 259.829C410.177 259.581 410.332 259.295 410.427 258.987C410.523 258.679 410.557 258.355 410.527 258.034C410.498 257.713 410.405 257.4 410.255 257.115Z" fill="#CCCCCC"/>
        <path d="M453.904 345.568H82.4744C82.0093 345.57 81.5447 345.558 81.0864 345.532L256.756 246.599C260.101 244.676 267.605 244 273.518 245.087C275.139 245.337 276.709 245.847 278.167 246.599L396.063 312.991L401.711 316.168L453.904 345.568Z" fill="#E6E6E6"/>
        <path d="M571.086 345.568H249.83L312.083 316.168L316.563 314.05L397.685 275.735C403.003 273.224 415.797 273.068 422.05 275.262C422.47 275.411 422.859 275.569 423.218 275.735L571.086 345.568Z" fill="#E6E6E6"/>
        <path d="M610.173 347.568H35C32.6139 347.565 30.3263 346.616 28.6391 344.929C26.9518 343.242 26.0027 340.954 26 338.568V31.568C26.0027 29.1819 26.9518 26.8943 28.6391 25.2071C30.3263 23.5198 32.6139 22.5707 35 22.568H610.173C612.559 22.5707 614.847 23.5198 616.534 25.2071C618.221 26.8943 619.17 29.1819 619.173 31.568V338.568C619.17 340.954 618.221 343.242 616.534 344.929C614.847 346.616 612.559 347.565 610.173 347.568ZM35 24.568C33.1441 24.5701 31.3649 25.3082 30.0526 26.6205C28.7402 27.9328 28.0021 29.7121 28 31.568V338.568C28.0021 340.424 28.7402 342.203 30.0526 343.515C31.3649 344.828 33.1441 345.566 35 345.568H610.173C612.029 345.566 613.808 344.828 615.12 343.515C616.433 342.203 617.171 340.424 617.173 338.568V31.568C617.171 29.7121 616.433 27.9328 615.12 26.6205C613.808 25.3082 612.029 24.5701 610.173 24.568H35Z" fill="#CCCCCC"/>
        <path d="M507.896 242.236C551.197 242.236 586.299 198.299 586.299 144.099C586.299 89.8993 551.197 45.9617 507.896 45.9617C464.595 45.9617 429.493 89.8993 429.493 144.099C429.493 198.299 464.595 242.236 507.896 242.236Z" fill="#F2F2F2"/>
        <path d="M508.112 124.365H508.327L512.204 346.65H504.019L508.112 124.365Z" fill="#CCCCCC"/>
        <path d="M521.484 271.525C521.724 271.98 521.773 272.511 521.62 273.002C521.468 273.493 521.127 273.904 520.672 274.143L509.427 280.063L507.621 276.633L518.866 270.713C519.321 270.473 519.852 270.424 520.343 270.576C520.834 270.729 521.245 271.07 521.484 271.525Z" fill="#CCCCCC"/>
        <path d="M282.49 242.236C325.79 242.236 360.893 198.299 360.893 144.099C360.893 89.8993 325.79 45.9617 282.49 45.9617C239.189 45.9617 204.086 89.8993 204.086 144.099C204.086 198.299 239.189 242.236 282.49 242.236Z" fill="#F2F2F2"/>
        <path d="M296.078 275.2C295.838 274.745 295.428 274.404 294.937 274.252C294.446 274.099 293.914 274.148 293.459 274.388L285.609 278.521L282.92 124.365H282.705L278.613 346.651H286.797L285.685 282.862L295.266 277.818C295.72 277.579 296.061 277.168 296.214 276.677C296.366 276.186 296.317 275.655 296.078 275.2Z" fill="#CCCCCC"/>
    </g>
    <defs>
        <clipPath id="clip0_258_5738">
            <rect width="642" height="374" fill="white"/>
        </clipPath>
    </defs>
</svg>
