<svg width="642" height="374" viewBox="0 0 642 374" fill="none"
    xmlns="http://www.w3.org/2000/svg">
    <g clip-path="url(#clip0_258_5738)">
        <path d="M451.904 347.568H80.4744C80.0093 347.57 79.5447 347.558 79.0864 347.532L254.756 248.599C258.101 246.676 265.605 246 271.518 247.087C273.139 247.337 274.709 247.847 276.167 248.599L394.063 314.991L399.711 318.168L451.904 347.568Z" fill="#E6E6E6"/>
        <path d="M569.086 347.568H247.83L310.083 318.168L314.563 316.05L395.685 277.735C401.003 275.224 413.797 275.068 420.05 277.262C420.47 277.411 420.859 277.569 421.218 277.735L569.086 347.568Z" fill="#E6E6E6"/>
        <rect width="642" height="374" fill="#3F3D56"/>
        <path d="M608.173 348.568H33C30.6139 348.565 28.3263 347.616 26.6391 345.929C24.9518 344.242 24.0027 341.954 24 339.568V32.568C24.0027 30.1819 24.9518 27.8943 26.6391 26.2071C28.3263 24.5198 30.6139 23.5707 33 23.568H608.173C610.559 23.5707 612.847 24.5198 614.534 26.2071C616.221 27.8943 617.17 30.1819 617.173 32.568V339.568C617.17 341.954 616.221 344.242 614.534 345.929C612.847 347.616 610.559 348.565 608.173 348.568ZM33 25.568C31.1441 25.5701 29.3649 26.3082 28.0526 27.6205C26.7402 28.9328 26.0021 30.7121 26 32.568V339.568C26.0021 341.424 26.7402 343.203 28.0526 344.515C29.3649 345.828 31.1441 346.566 33 346.568H608.173C610.029 346.566 611.808 345.828 613.12 344.515C614.433 343.203 615.171 341.424 615.173 339.568V32.568C615.171 30.7121 614.433 28.9328 613.12 27.6205C611.808 26.3082 610.029 25.5701 608.173 25.568H33Z" fill="#CCCCCC"/>
        <path d="M505.896 244.236C549.197 244.236 584.299 200.299 584.299 146.099C584.299 91.8993 549.197 47.9617 505.896 47.9617C462.595 47.9617 427.493 91.8993 427.493 146.099C427.493 200.299 462.595 244.236 505.896 244.236Z" fill="#F2F2F2"/>
        <path d="M506.112 126.365H506.327L510.204 348.65H502.019L506.112 126.365Z" fill="#CCCCCC"/>
        <path d="M519.484 273.525C519.724 273.98 519.773 274.511 519.62 275.002C519.468 275.493 519.127 275.904 518.672 276.143L507.427 282.063L505.621 278.633L516.866 272.713C517.321 272.473 517.852 272.424 518.343 272.576C518.834 272.729 519.245 273.07 519.484 273.525Z" fill="#CCCCCC"/>
        <path d="M280.49 244.236C323.79 244.236 358.893 200.299 358.893 146.099C358.893 91.8993 323.79 47.9617 280.49 47.9617C237.189 47.9617 202.086 91.8993 202.086 146.099C202.086 200.299 237.189 244.236 280.49 244.236Z" fill="#F2F2F2"/>
        <path d="M294.078 277.2C293.838 276.745 293.428 276.404 292.937 276.252C292.446 276.099 291.914 276.148 291.459 276.388L283.609 280.521L280.92 126.365H280.705L276.613 348.651H284.797L283.685 284.862L293.266 279.818C293.72 279.579 294.061 279.168 294.214 278.677C294.366 278.186 294.317 277.655 294.078 277.2Z" fill="#CCCCCC"/>
        <path d="M409.812 257.348L409.812 257.348C409.932 257.575 410.006 257.824 410.029 258.08C410.053 258.336 410.026 258.594 409.95 258.839C409.874 259.084 409.75 259.312 409.586 259.51C409.422 259.707 409.22 259.871 408.993 259.99L409.226 260.433L408.993 259.99L396.853 266.382L396.581 266.525L396.586 266.833L397.987 347.151H388.634L393.437 86.2805L396.49 261.331L396.504 262.144L397.223 261.765L407.17 256.528C407.397 256.409 407.646 256.335 407.902 256.311C408.158 256.288 408.416 256.315 408.661 256.391C408.906 256.467 409.134 256.591 409.332 256.755C409.529 256.919 409.693 257.121 409.812 257.348Z" fill="#3F3D56" stroke="#F2F2F2"/>
        <path d="M453.904 346.568H82.4744C82.0093 346.57 81.5447 346.558 81.0864 346.532L256.756 247.599C260.101 245.676 267.605 245 273.518 246.087C275.139 246.337 276.709 246.847 278.167 247.599L396.063 313.991L401.711 317.168L453.904 346.568Z" fill="#E6E6E6"/>
        <path d="M571.086 346.568H249.83L312.083 317.168L316.563 315.05L397.685 276.735C403.003 274.224 415.797 274.068 422.05 276.262C422.47 276.411 422.859 276.569 423.218 276.735L571.086 346.568Z" fill="#E6E6E6"/>
        <path d="M507.896 242.236C551.197 242.236 586.299 198.299 586.299 144.099C586.299 89.8993 551.197 45.9617 507.896 45.9617C464.595 45.9617 429.493 89.8993 429.493 144.099C429.493 198.299 464.595 242.236 507.896 242.236Z" fill="#F2F2F2"/>
        <path d="M508.112 124.365H508.327L512.204 346.65H504.019L508.112 124.365Z" fill="#CCCCCC"/>
        <path d="M521.484 271.525C521.724 271.98 521.773 272.511 521.62 273.002C521.468 273.493 521.127 273.904 520.672 274.143L509.427 280.063L507.621 276.633L518.866 270.713C519.321 270.473 519.852 270.424 520.343 270.576C520.834 270.729 521.245 271.07 521.484 271.525Z" fill="#CCCCCC"/>
        <path d="M282.49 242.236C325.79 242.236 360.893 198.299 360.893 144.099C360.893 89.8993 325.79 45.9617 282.49 45.9617C239.189 45.9617 204.086 89.8993 204.086 144.099C204.086 198.299 239.189 242.236 282.49 242.236Z" fill="#F2F2F2"/>
        <path d="M296.078 275.2C295.838 274.745 295.428 274.404 294.937 274.252C294.446 274.099 293.914 274.148 293.459 274.388L285.609 278.521L282.92 124.365H282.705L278.613 346.651H286.797L285.685 282.862L295.266 277.818C295.72 277.579 296.061 277.168 296.214 276.677C296.366 276.186 296.317 275.655 296.078 275.2Z" fill="#CCCCCC"/>
    </g>
    <defs>
        <clipPath id="clip0_258_5738">
            <rect width="642" height="374" fill="white"/>
        </clipPath>
    </defs>
</svg>
