<svg width="211" height="177" viewBox="0 0 211 177" fill="none"
    xmlns="http://www.w3.org/2000/svg">
    <g clip-path="url(#clip0_245_5810)">
        <path d="M179.147 170.76L174.257 170.76L171.931 151.897L179.148 151.898L179.147 170.76Z" fill="#917879"/>
        <path d="M180.394 175.5L164.626 175.5V175.3C164.626 173.673 165.273 172.112 166.424 170.961C167.575 169.81 169.136 169.163 170.763 169.163H170.764L180.394 169.163L180.394 175.5Z" fill="#2F2E41"/>
        <path d="M200.73 158.737L197.556 162.458L181.697 151.984L186.382 146.493L200.73 158.737Z" fill="#917879"/>
        <path d="M205.146 160.866L194.91 172.86L194.758 172.731C193.52 171.674 192.753 170.169 192.624 168.547C192.496 166.924 193.017 165.317 194.073 164.078L194.074 164.078L200.325 156.752L205.146 160.866Z" fill="#2F2E41"/>
        <path d="M144.424 77.9977L142.902 92.0366L204.438 91.1589L177.602 47.4319L155.69 46.6449L144.424 77.9977Z" fill="#2F2E41"/>
        <path opacity="0.28" d="M144.424 77.9977L142.902 92.0366L204.438 91.1589L177.602 47.4319L155.69 46.6449L144.424 77.9977Z" fill="black"/>
        <path d="M156.524 80.4078L154.352 93.2533V104.735L171.868 110.453C171.868 110.453 169.817 155.051 172.551 157.891L172.484 164.748L180.125 165.096L180.187 160.27L183.427 124.198L185.335 97.7145L182.241 77.6353L156.524 80.4078Z" fill="#2F2E41"/>
        <path d="M170.095 91.4653L154.352 104.735C154.352 104.735 153.431 128.677 155.771 131.485C157.78 133.896 183.917 154.697 183.917 154.697C183.917 154.697 188.562 158.958 191.166 159.026C193.769 159.094 196.797 153.634 196.797 153.634L190.768 149.053C190.768 149.053 175.149 134.474 170.511 128.677C168.639 126.337 168.639 126.103 168.639 126.103L169.279 116.373L175.713 98.3154L170.095 91.4653Z" fill="#2F2E41"/>
        <path d="M153.381 27.9021L146.594 27.2748L140.437 28.3008L127.4 28.305L126.29 37.7537L138.187 40.4159L141.086 38.995L153.171 43.5995L153.381 27.9021Z" fill="#2F2E41"/>
        <path d="M161.488 27.8726C161.488 27.8726 175.893 26.5228 179.168 29.0966C182.444 31.6703 189.463 82.6773 189.463 82.6773L161.488 84.2562L156.473 80.8055L157.896 55.3408L161.488 27.8726Z" fill="#CCCCCC"/>
        <path d="M165.884 27.5548L149.995 27.9035L135.18 94.844L146.879 97.418L165.884 27.5548Z" fill="#2F2E41"/>
        <path d="M177.181 26.989L189.697 30.9065L188.986 58.4102L204.438 91.2929L186.273 93.2063L171.915 57.6992L177.181 26.989Z" fill="#2F2E41"/>
        <path d="M197.82 94.6331C198.259 94.2468 198.608 93.769 198.842 93.2333C199.076 92.6977 199.19 92.1172 199.176 91.5327C199.161 90.9483 199.019 90.3742 198.758 89.8507C198.498 89.3273 198.126 88.8673 197.669 88.5032L200.187 79.7188L195.222 76.8867L191.84 89.3418C191.279 90.1506 191.035 91.1371 191.153 92.1143C191.27 93.0915 191.743 93.9914 192.48 94.6436C193.217 95.2959 194.168 95.655 195.152 95.6531C196.136 95.6511 197.086 95.2882 197.82 94.6331Z" fill="#917879"/>
        <path d="M182.444 31.6703L189.85 31.0279C189.85 31.0279 196.499 37.982 198.012 43.3663C199.525 48.7506 201.162 65.597 201.162 65.597L200.479 90.2415L191.822 84.3626L191.241 63.1651L182.444 31.6703Z" fill="#2F2E41"/>
        <path d="M180.657 19.2834C183.438 14.1958 181.569 7.81687 176.481 5.03573C171.393 2.25459 165.015 4.12436 162.233 9.21197C159.452 14.2996 161.322 20.6785 166.41 23.4596C171.497 26.2408 177.876 24.371 180.657 19.2834Z" fill="#917879"/>
        <path d="M170.275 9.86474C168.898 9.54646 167.468 9.89916 166.073 10.1278C164.677 10.3564 163.14 10.4318 161.96 9.6534C161.088 9.07853 160.552 8.12751 160.049 7.2127C159.839 6.88599 159.699 6.5193 159.638 6.13578C159.579 5.45922 160.009 4.84194 160.466 4.33957C162.589 2.00607 165.692 0.728897 168.82 0.323199C171.4 -0.0613141 174.036 0.260578 176.448 1.25464C178.823 2.29625 180.864 4.20371 181.798 6.62301C182.228 7.86122 182.496 9.14974 182.597 10.4567C182.738 11.4182 182.756 12.3938 182.651 13.36C182.525 14.0762 182.337 14.78 182.088 15.4634L180.541 20.1335C180.43 20.5748 180.222 20.986 179.933 21.3374C179.784 21.5094 179.584 21.6288 179.362 21.6774C179.14 21.7261 178.908 21.7015 178.701 21.6073C178.825 21.1 178.844 20.5728 178.756 20.058C178.708 19.8015 178.584 19.5653 178.4 19.3799C178.216 19.1945 177.981 19.0684 177.725 19.0178C177.155 18.9573 176.668 19.3992 176.127 19.5896C175.88 19.6629 175.62 19.6868 175.363 19.6599C175.107 19.633 174.858 19.5557 174.631 19.4326C174.404 19.3095 174.204 19.1429 174.041 18.9423C173.879 18.7417 173.757 18.5111 173.684 18.2636C173.669 18.2137 173.656 18.1633 173.645 18.1123C173.56 17.5784 173.703 17.0068 173.501 16.5054C173.264 15.918 172.635 15.6102 172.163 15.188C171.732 14.7903 171.423 14.2777 171.274 13.7106C171.124 13.1436 171.139 12.5455 171.318 11.9868C171.444 11.5982 171.801 11.4215 171.73 10.975C171.636 10.3892 170.772 9.97967 170.275 9.86474Z" fill="#2F2E41"/>
        <path d="M127.331 36.9325C129.633 36.9325 131.499 35.0665 131.499 32.7646C131.499 30.4627 129.633 28.5967 127.331 28.5967C125.03 28.5967 123.164 30.4627 123.164 32.7646C123.164 35.0665 125.03 36.9325 127.331 36.9325Z" fill="#917879"/>
        <path d="M138.016 127.571H15.6357V35.8906H138.016V127.571Z" fill="white"/>
        <path d="M138.016 127.571H15.6357V35.8906H138.016V127.571ZM16.8974 37.1523V126.309H136.754V37.1523H16.8974Z" fill="#E6E6E6"/>
        <path d="M76.7877 105.205C89.6572 105.205 100.09 94.7722 100.09 81.9027C100.09 69.0332 89.6572 58.6004 76.7877 58.6004C63.9182 58.6004 53.4854 69.0332 53.4854 81.9027C53.4854 94.7722 63.9182 105.205 76.7877 105.205Z" fill="#D11C5A"/>
        <path d="M86.4643 79.9459H78.5416V72.0231C78.5416 71.5287 78.3451 71.0545 77.9955 70.7049C77.6459 70.3552 77.1717 70.1588 76.6773 70.1588C76.1828 70.1588 75.7086 70.3552 75.359 70.7049C75.0094 71.0545 74.8129 71.5287 74.8129 72.0231V79.9459H66.8902C66.3957 79.9459 65.9215 80.1423 65.5719 80.4919C65.2223 80.8416 65.0259 81.3157 65.0259 81.8102C65.0259 82.3046 65.2223 82.7788 65.5719 83.1284C65.9215 83.4781 66.3957 83.6745 66.8902 83.6745H74.8129V91.5972C74.8129 92.0917 75.0094 92.5659 75.359 92.9155C75.7086 93.2651 76.1828 93.4616 76.6773 93.4616C77.1717 93.4616 77.6459 93.2651 77.9955 92.9155C78.3451 92.5659 78.5416 92.0917 78.5416 91.5972V83.6745H86.4643C86.9588 83.6745 87.433 83.4781 87.7826 83.1284C88.1322 82.7788 88.3286 82.3046 88.3286 81.8102C88.3286 81.3157 88.1322 80.8416 87.7826 80.4919C87.433 80.1423 86.9588 79.9459 86.4643 79.9459Z" fill="white"/>
        <path d="M51.6225 55.6945H0.606934V17.1982H51.6225V55.6945Z" fill="white"/>
        <path d="M51.6225 55.6945H0.606934V17.1982H51.6225V55.6945ZM1.54524 54.7561H50.6842V18.1365H1.54524V54.7561Z" fill="#E6E6E6"/>
        <path d="M44.8933 27.6829H7.33545V30.1868H44.8933V27.6829Z" fill="#D11C5A"/>
        <path d="M44.8933 35.1941H7.33545V37.698H44.8933V35.1941Z" fill="#D11C5A"/>
        <path d="M44.8933 42.7058H7.33545V45.2097H44.8933V42.7058Z" fill="#D11C5A"/>
        <path d="M210.496 176.641H8.5076C8.37505 176.641 8.24805 176.588 8.15446 176.494C8.06086 176.4 8.0083 176.273 8.0083 176.141C8.0083 176.008 8.06086 175.881 8.15446 175.787C8.24805 175.693 8.37505 175.64 8.5076 175.64H210.496C210.629 175.64 210.756 175.693 210.85 175.787C210.944 175.881 210.997 176.008 210.997 176.141C210.997 176.274 210.944 176.401 210.85 176.495C210.756 176.589 210.629 176.641 210.496 176.641Z" fill="#CACACA"/>
    </g>
    <defs>
        <clipPath id="clip0_245_5810">
            <rect width="211" height="177" fill="white"/>
        </clipPath>
    </defs>
</svg>
