<svg width="32" height="32" viewBox="0 0 32 32" fill="none"
    xmlns="http://www.w3.org/2000/svg">
    <path d="M28.5714 12.5714H19.4286V3.42857C19.4286 2.51926 19.0673 1.64719 18.4244 1.00421C17.7814 0.361227 16.9093 0 16 0C15.0907 0 14.2186 0.361227 13.5756 1.00421C12.9327 1.64719 12.5714 2.51926 12.5714 3.42857V12.5714H3.42857C2.51925 12.5714 1.64719 12.9327 1.00421 13.5756C0.361227 14.2186 0 15.0907 0 16C0 16.9093 0.361227 17.7814 1.00421 18.4244C1.64719 19.0674 2.51925 19.4286 3.42857 19.4286H12.5714V28.5714C12.5714 29.4807 12.9327 30.3528 13.5756 30.9958C14.2186 31.6388 15.0907 32 16 32C16.9093 32 17.7814 31.6388 18.4244 30.9958C19.0673 30.3528 19.4286 29.4807 19.4286 28.5714V19.4286H28.5714C29.4807 19.4286 30.3528 19.0674 30.9958 18.4244C31.6388 17.7814 32 16.9093 32 16C32 15.0907 31.6388 14.2186 30.9958 13.5756C30.3528 12.9327 29.4807 12.5714 28.5714 12.5714Z" fill="#D9D9D9"/>
</svg>
