<svg width="300" height="446" viewBox="0 0 300 446" fill="none"
    xmlns="http://www.w3.org/2000/svg">
    <g filter="url(#filter0_d_245_5897)">
        <g clip-path="url(#clip0_245_5897)">
            <rect x="4" width="292" height="438" rx="8" fill="url(#paint0_linear_245_5897)" shape-rendering="crispEdges"/>
            <path d="M142.218 68.7581H135.459V123.758H142.218V68.7581Z" fill="#F2F2F2"/>
            <path d="M285.155 437.014H18.8406L19.138 414.126L19.165 412.136L21.5443 233.014H283.804L284.141 284.76L284.155 286.75L285.155 437.014Z" fill="#D9D9D9"/>
            <path d="M295.963 212.406H4.64087V236.174H295.963V212.406Z" fill="#D9D9D9"/>
            <path d="M196.458 183.772L195.471 181.211H195.693C196.304 181.21 196.889 181.03 197.321 180.71C197.752 180.39 197.995 179.957 197.995 179.505C197.995 179.053 197.752 178.619 197.321 178.299C196.889 177.979 196.304 177.799 195.693 177.798C185.263 175.965 174.397 175.965 163.966 177.798C163.357 177.797 162.772 177.976 162.34 178.293C161.908 178.611 161.663 179.043 161.659 179.493C161.656 179.944 161.893 180.378 162.321 180.699C162.748 181.021 163.33 181.204 163.939 181.209L163.001 183.772C155.721 191.258 159.283 203.694 163.001 216.201H196.458C200.664 202.569 203.848 189.622 196.458 183.772Z" fill="#E6E6E6"/>
            <path d="M179.83 203.827C184.927 203.827 189.059 200.77 189.059 197C189.059 193.229 184.927 190.172 179.83 190.172C174.732 190.172 170.6 193.229 170.6 197C170.6 200.77 174.732 203.827 179.83 203.827Z" fill="white"/>
            <path d="M221.699 147.241L220.712 144.68H220.934C221.546 144.68 222.133 144.5 222.565 144.18C222.998 143.86 223.241 143.426 223.241 142.973C223.241 142.521 222.998 142.087 222.565 141.767C222.133 141.446 221.546 141.267 220.934 141.267C210.503 139.434 199.638 139.434 189.207 141.267C188.598 141.266 188.013 141.445 187.581 141.762C187.148 142.08 186.904 142.512 186.9 142.962C186.896 143.413 187.134 143.847 187.561 144.168C187.989 144.49 188.571 144.673 189.18 144.678L188.242 147.241C180.962 154.727 184.524 167.163 188.242 179.67H221.699C225.905 166.038 229.089 153.09 221.699 147.241Z" fill="#E6E6E6"/>
            <path d="M205.071 167.296C210.168 167.296 214.3 164.239 214.3 160.469C214.3 156.698 210.168 153.641 205.071 153.641C199.973 153.641 195.841 156.698 195.841 160.469C195.841 164.239 199.973 167.296 205.071 167.296Z" fill="white"/>
            <path d="M173.032 147.241L172.045 144.68H172.267C172.879 144.68 173.466 144.5 173.899 144.18C174.331 143.86 174.574 143.426 174.574 142.973C174.574 142.521 174.331 142.087 173.899 141.767C173.466 141.446 172.879 141.267 172.267 141.267C161.837 139.434 150.971 139.434 140.541 141.267C139.931 141.266 139.346 141.445 138.914 141.762C138.482 142.08 138.237 142.512 138.233 142.962C138.23 143.413 138.468 143.847 138.895 144.168C139.322 144.49 139.904 144.673 140.513 144.678L139.575 147.241C132.296 154.727 135.857 167.163 139.575 179.67H173.032C177.238 166.038 180.423 153.09 173.032 147.241Z" fill="#E6E6E6"/>
            <path d="M156.404 167.296C161.501 167.296 165.633 164.239 165.633 160.469C165.633 156.698 161.501 153.641 156.404 153.641C151.307 153.641 147.174 156.698 147.174 160.469C147.174 164.239 151.307 167.296 156.404 167.296Z" fill="white"/>
            <path d="M151.402 112.241L150.416 109.68H150.637C151.249 109.68 151.836 109.5 152.269 109.18C152.702 108.86 152.945 108.426 152.945 107.973C152.945 107.521 152.702 107.087 152.269 106.767C151.836 106.446 151.249 106.267 150.637 106.267C140.207 104.434 129.341 104.434 118.911 106.267C118.302 106.266 117.717 106.445 117.284 106.762C116.852 107.08 116.607 107.512 116.604 107.962C116.6 108.413 116.838 108.847 117.265 109.168C117.692 109.49 118.274 109.673 118.884 109.678L117.945 112.241C110.666 119.727 114.227 132.163 117.945 144.67H151.402C155.608 131.038 158.793 118.09 151.402 112.241Z" fill="#E6E6E6"/>
            <path d="M134.774 132.296C139.872 132.296 144.004 129.239 144.004 125.469C144.004 121.698 139.872 118.641 134.774 118.641C129.677 118.641 125.545 121.698 125.545 125.469C125.545 129.239 129.677 132.296 134.774 132.296Z" fill="white"/>
            <path d="M200.069 112.241L199.083 109.68H199.304C199.916 109.68 200.503 109.5 200.936 109.18C201.368 108.86 201.612 108.426 201.612 107.973C201.612 107.521 201.368 107.087 200.936 106.767C200.503 106.446 199.916 106.267 199.304 106.267C188.874 104.434 178.008 104.434 167.578 106.267C166.968 106.266 166.384 106.445 165.951 106.762C165.519 107.08 165.274 107.512 165.27 107.962C165.267 108.413 165.505 108.847 165.932 109.168C166.359 109.49 166.941 109.673 167.55 109.678L166.612 112.241C159.333 119.727 162.894 132.163 166.612 144.67H200.069C204.275 131.038 207.46 118.09 200.069 112.241Z" fill="#E6E6E6"/>
            <path d="M183.441 132.296C188.538 132.296 192.67 129.239 192.67 125.469C192.67 121.698 188.538 118.641 183.441 118.641C178.344 118.641 174.211 121.698 174.211 125.469C174.211 129.239 178.344 132.296 183.441 132.296Z" fill="white"/>
            <path d="M123.013 147.241L122.027 144.68H122.249C122.86 144.68 123.447 144.5 123.88 144.18C124.313 143.86 124.556 143.426 124.556 142.973C124.556 142.521 124.313 142.087 123.88 141.767C123.447 141.446 122.86 141.267 122.249 141.267C111.818 139.434 100.952 139.434 90.5221 141.267C89.9126 141.266 89.3279 141.445 88.8955 141.762C88.4632 142.08 88.2184 142.512 88.2148 142.962C88.2112 143.413 88.449 143.847 88.8762 144.168C89.3034 144.49 89.8853 144.673 90.4947 144.678L89.5565 147.241C82.277 154.727 85.8383 167.163 89.5565 179.67H123.013C127.219 166.038 130.404 153.09 123.013 147.241Z" fill="#E6E6E6"/>
            <path d="M106.386 167.296C111.483 167.296 115.615 164.239 115.615 160.469C115.615 156.698 111.483 153.641 106.386 153.641C101.288 153.641 97.156 156.698 97.156 160.469C97.156 164.239 101.288 167.296 106.386 167.296Z" fill="white"/>
            <path d="M96.5909 183.772L95.6045 181.211H95.8262C96.4372 181.21 97.0226 181.03 97.4541 180.71C97.8856 180.39 98.128 179.957 98.128 179.505C98.128 179.053 97.8856 178.619 97.4541 178.299C97.0226 177.979 96.4372 177.799 95.8262 177.798C85.3958 175.965 74.5301 175.965 64.0997 177.798C63.4903 177.797 62.9055 177.976 62.4731 178.293C62.0408 178.611 61.7961 179.043 61.7924 179.493C61.7888 179.944 62.0266 180.378 62.4538 180.699C62.881 181.021 63.4629 181.204 64.0723 181.209L63.1342 183.772C55.8547 191.258 59.4159 203.694 63.1342 216.201H96.5911C100.797 202.569 103.982 189.622 96.5909 183.772Z" fill="#E6E6E6"/>
            <path d="M79.9629 203.827C85.0602 203.827 89.1924 200.77 89.1924 197C89.1924 193.229 85.0602 190.172 79.9629 190.172C74.8656 190.172 70.7334 193.229 70.7334 197C70.7334 200.77 74.8656 203.827 79.9629 203.827Z" fill="white"/>
            <path d="M146.609 183.772L145.623 181.211H145.845C146.456 181.21 147.041 181.03 147.473 180.71C147.904 180.39 148.147 179.957 148.147 179.505C148.147 179.053 147.904 178.619 147.473 178.299C147.041 177.979 146.456 177.799 145.845 177.798C135.414 175.965 124.549 175.965 114.118 177.798C113.509 177.797 112.924 177.976 112.492 178.293C112.059 178.611 111.815 179.043 111.811 179.493C111.807 179.944 112.045 180.378 112.472 180.699C112.9 181.021 113.481 181.204 114.091 181.209L113.153 183.772C105.873 191.258 109.434 203.694 113.153 216.201H146.61C150.815 202.569 154 189.622 146.609 183.772Z" fill="#E6E6E6"/>
            <path d="M129.981 203.827C135.079 203.827 139.211 200.77 139.211 197C139.211 193.229 135.079 190.172 129.981 190.172C124.884 190.172 120.752 193.229 120.752 197C120.752 200.77 124.884 203.827 129.981 203.827Z" fill="white"/>
            <path d="M249.135 183.772L248.148 181.211H248.37C248.981 181.21 249.566 181.03 249.998 180.71C250.429 180.39 250.671 179.957 250.671 179.505C250.671 179.053 250.429 178.619 249.998 178.299C249.566 177.979 248.981 177.799 248.37 177.798C237.939 175.965 227.074 175.965 216.643 177.798C216.034 177.797 215.449 177.976 215.017 178.293C214.584 178.611 214.34 179.043 214.336 179.493C214.332 179.944 214.57 180.378 214.997 180.699C215.424 181.021 216.006 181.204 216.616 181.209L215.678 183.772C208.398 191.258 211.959 203.694 215.678 216.201H249.135C253.341 202.569 256.525 189.622 249.135 183.772Z" fill="#E6E6E6"/>
            <path d="M232.507 203.827C237.604 203.827 241.736 200.77 241.736 197C241.736 193.229 237.604 190.172 232.507 190.172C227.409 190.172 223.277 193.229 223.277 197C223.277 200.77 227.409 203.827 232.507 203.827Z" fill="white"/>
            <path d="M184.242 55.4741L71.4686 90.8143C70.4634 91.128 69.3711 91.0418 68.4313 90.5744C67.4915 90.1071 66.7809 89.2968 66.4555 88.3214L52.1913 45.3942C51.8682 44.418 51.957 43.3573 52.4382 42.4446C52.9195 41.5319 53.7538 40.8419 54.7583 40.5259L167.531 5.18573C168.537 4.87197 169.629 4.95825 170.569 5.42559C171.509 5.89294 172.219 6.70318 172.544 7.67863L186.809 50.6058C187.132 51.582 187.043 52.6428 186.562 53.5554C186.081 54.4681 185.246 55.1581 184.242 55.4741Z" fill="#F2F2F2"/>
            <path d="M156.84 61.4423L88.204 83.0501C83.0875 84.6547 77.5275 84.2137 72.7438 81.8239C67.9601 79.4341 64.3434 75.2907 62.6871 70.3027L59.9737 62.0991C58.329 57.1074 58.781 51.6831 61.2305 47.0162C63.6801 42.3492 67.9271 38.8208 73.0399 37.205L150.085 12.9499C155.202 11.3453 160.762 11.7864 165.545 14.1762C170.329 16.566 173.946 20.7094 175.602 25.6974C177.964 32.8648 177.314 40.6535 173.797 47.3546C170.28 54.0557 164.182 59.1221 156.84 61.4423Z" fill="#D11C5A"/>
            <path d="M128.282 33.9221L82.3601 47.9524C82.2301 47.9921 82.093 48.0072 81.9568 47.9968C81.8206 47.9864 81.6879 47.9507 81.5663 47.8917C81.4447 47.8327 81.3365 47.7516 81.248 47.6531C81.1594 47.5545 81.0923 47.4405 81.0503 47.3173C81.0083 47.1942 80.9924 47.0644 81.0034 46.9355C81.0144 46.8065 81.0521 46.6809 81.1144 46.5657C81.1767 46.4505 81.2623 46.3481 81.3664 46.2643C81.4705 46.1805 81.591 46.1169 81.721 46.0771L127.642 32.0468C127.905 31.9674 128.19 31.9897 128.435 32.1089C128.68 32.2281 128.865 32.4344 128.95 32.6827C129.034 32.9309 129.011 33.2008 128.886 33.4332C128.761 33.6655 128.544 33.8413 128.282 33.9221Z" fill="#E6E6E6"/>
            <path d="M154.292 36.9142L86.3381 57.952C86.2102 57.9919 86.0754 58.0071 85.9415 57.9969C85.8075 57.9867 85.6769 57.9513 85.5572 57.8926C85.4375 57.834 85.331 57.7532 85.2439 57.655C85.1568 57.5568 85.0907 57.4431 85.0494 57.3204C85.0081 57.1977 84.9925 57.0684 85.0034 56.9398C85.0142 56.8113 85.0514 56.6861 85.1128 56.5713C85.1742 56.4566 85.2585 56.3546 85.361 56.2712C85.4635 56.1878 85.5822 56.1246 85.7102 56.0852L153.664 35.0474C153.922 34.9675 154.202 34.9892 154.444 35.1078C154.685 35.2264 154.867 35.4321 154.951 35.6796C155.034 35.9272 155.011 36.1963 154.888 36.4279C154.764 36.6594 154.55 36.8344 154.292 36.9142Z" fill="#E6E6E6"/>
            <path d="M158.283 46.9137L89.3554 67.9526C89.2258 67.9922 89.0893 68.0072 88.9535 67.9968C88.8178 67.9865 88.6855 67.9509 88.5643 67.8922C88.4431 67.8335 88.3353 67.7528 88.2471 67.6547C88.1589 67.5565 88.0919 67.4429 88.0501 67.3204C88.0083 67.1978 87.9924 67.0686 88.0034 66.9402C88.0143 66.8118 88.0519 66.6867 88.114 66.5721C88.176 66.4574 88.2614 66.3555 88.3651 66.272C88.4688 66.1886 88.5889 66.1253 88.7185 66.0857L157.646 45.0468C157.908 44.9675 158.192 44.9896 158.437 45.1082C158.681 45.2269 158.866 45.4324 158.95 45.6796C159.034 45.9269 159.011 46.1957 158.886 46.4271C158.761 46.6585 158.545 46.8335 158.283 46.9137Z" fill="#E6E6E6"/>
            <path d="M158.283 46.9137L89.3554 67.9526C89.2258 67.9922 89.0893 68.0072 88.9535 67.9968C88.8178 67.9865 88.6855 67.9509 88.5643 67.8922C88.4431 67.8335 88.3353 67.7528 88.2471 67.6547C88.1589 67.5565 88.0919 67.4429 88.0501 67.3204C88.0083 67.1978 87.9924 67.0686 88.0034 66.9402C88.0143 66.8118 88.0519 66.6867 88.114 66.5721C88.176 66.4574 88.2614 66.3555 88.3651 66.272C88.4688 66.1886 88.5889 66.1253 88.7185 66.0857L157.646 45.0468C157.908 44.9675 158.192 44.9896 158.437 45.1082C158.681 45.2269 158.866 45.4324 158.95 45.6796C159.034 45.9269 159.011 46.1957 158.886 46.4271C158.761 46.6585 158.545 46.8335 158.283 46.9137Z" fill="#E6E6E6"/>
            <path d="M164 23C170.627 23 176 17.8513 176 11.5C176 5.14872 170.627 0 164 0C157.373 0 152 5.14872 152 11.5C152 17.8513 157.373 23 164 23Z" fill="#36AD47"/>
            <path d="M163.321 17C163.172 17 163.025 16.9614 162.891 16.8872C162.758 16.813 162.642 16.7052 162.552 16.5725L160.194 13.0779C160.118 12.9656 160.062 12.8378 160.031 12.7017C159.999 12.5656 159.992 12.4239 160.01 12.2848C160.027 12.1456 160.069 12.0117 160.134 11.8907C160.198 11.7697 160.283 11.6641 160.385 11.5797C160.486 11.4954 160.601 11.4341 160.724 11.3993C160.846 11.3645 160.974 11.3569 161.099 11.377C161.224 11.397 161.344 11.4443 161.453 11.5161C161.562 11.588 161.657 11.6829 161.732 11.7956L163.275 14.0817L167.238 7.47587C167.38 7.24005 167.6 7.07634 167.85 7.02076C168.1 6.96517 168.36 7.02226 168.572 7.17947C168.784 7.33669 168.931 7.58115 168.981 7.85907C169.031 8.13699 168.98 8.42563 168.838 8.66145L164.122 16.5242C164.036 16.6664 163.922 16.7838 163.787 16.8665C163.652 16.9492 163.502 16.9949 163.348 16.9997L163.321 17Z" fill="white"/>
        </g>
    </g>
    <defs>
        <filter id="filter0_d_245_5897" x="0" y="0" width="300" height="446" filterUnits="userSpaceOnUse" color-interpolation-filters="sRGB">
            <feFlood flood-opacity="0" result="BackgroundImageFix"/>
            <feColorMatrix in="SourceAlpha" type="matrix" values="0 0 0 0 0 0 0 0 0 0 0 0 0 0 0 0 0 0 127 0" result="hardAlpha"/>
            <feOffset dy="4"/>
            <feGaussianBlur stdDeviation="2"/>
            <feComposite in2="hardAlpha" operator="out"/>
            <feColorMatrix type="matrix" values="0 0 0 0 0 0 0 0 0 0 0 0 0 0 0 0 0 0 0.25 0"/>
            <feBlend mode="normal" in2="BackgroundImageFix" result="effect1_dropShadow_245_5897"/>
            <feBlend mode="normal" in="SourceGraphic" in2="effect1_dropShadow_245_5897" result="shape"/>
        </filter>
        <linearGradient id="paint0_linear_245_5897" x1="150" y1="0" x2="150" y2="438" gradientUnits="userSpaceOnUse">
            <stop stop-color="white" stop-opacity="0.34"/>
            <stop offset="0.369792" stop-color="white" stop-opacity="0.72"/>
            <stop offset="1" stop-color="#D11C5A"/>
        </linearGradient>
        <clipPath id="clip0_245_5897">
            <rect x="4" width="292" height="438" rx="8" fill="white"/>
        </clipPath>
    </defs>
</svg>
