<svg width="300" height="300" viewBox="0 0 300 300" fill="none"
    xmlns="http://www.w3.org/2000/svg">
    <path d="M210.397 105.41C210.397 102.599 212.673 100.321 215.482 100.321C218.29 100.321 220.567 102.599 220.567 105.41V197.002C220.567 199.812 218.29 202.09 215.482 202.09C212.673 202.09 210.397 199.812 210.397 197.002V105.41Z" fill="#565759"/>
    <path d="M192.599 92.6884C192.599 89.8782 194.875 87.6 197.684 87.6C200.492 87.6 202.769 89.8782 202.769 92.6884V209.723C202.769 212.533 200.492 214.811 197.684 214.811C194.875 214.811 192.599 212.533 192.599 209.723V92.6884Z" fill="#565759"/>
    <path d="M174.801 87.6C174.801 84.7897 177.077 82.5116 179.886 82.5116C182.694 82.5116 184.971 84.7897 184.971 87.6V217.355C184.971 220.166 182.694 222.444 179.886 222.444C177.077 222.444 174.801 220.166 174.801 217.355V87.6Z" fill="#565759"/>
    <path d="M157.003 66.6102C157.003 63.7999 159.28 61.5217 162.088 61.5217C164.896 61.5217 167.173 63.7999 167.173 66.6102V237.709C167.173 240.519 164.896 242.798 162.088 242.798C159.28 242.798 157.003 240.519 157.003 237.709V66.6102Z" fill="#565759"/>
    <path d="M139.205 73.6068C139.205 70.7965 141.482 68.5183 144.29 68.5183C147.099 68.5183 149.375 70.7965 149.375 73.6068V228.804C149.375 231.615 147.099 233.893 144.29 233.893C141.482 233.893 139.205 231.615 139.205 228.804V73.6068Z" fill="#565759"/>
    <path d="M121.407 92.6884C121.407 89.8782 123.684 87.6 126.492 87.6C129.301 87.6 131.577 89.8782 131.577 92.6884V209.723C131.577 212.533 129.301 214.811 126.492 214.811C123.684 214.811 121.407 212.533 121.407 209.723V92.6884Z" fill="#565759"/>
    <path d="M103.609 99.049C103.609 96.2387 105.886 93.9606 108.694 93.9606C111.503 93.9606 113.78 96.2387 113.78 99.049V203.362C113.78 206.172 111.503 208.451 108.694 208.451C105.886 208.451 103.609 206.172 103.609 203.362V99.049Z" fill="#565759"/>
    <path d="M30.5158 189.558C31.1463 187.467 31.1463 186.831 30.5158 184.923C28.2859 176.972 26.4918 150.982 28.0821 134.603C29.4928 120.074 32.2013 105.685 39.0982 92.5883C43.4388 84.3454 52.8347 66.8882 55.9361 66.2918C58.2376 65.8493 65.4707 73.6132 69.5956 77.8766C72.5477 80.9279 76.4083 84.5649 79.4547 87.6064C80.0026 88.1534 79.9902 88.758 79.4547 89.5146C68.0843 105.582 61.4306 123.626 60.3543 143.334C59.5381 158.278 61.727 172.817 67.0818 186.621C69.2978 192.333 66.5239 195.402 64.04 199.057C59.557 205.652 54.7757 212.044 50.1366 218.534C47.8811 221.69 45.6369 224.854 43.4617 228.065C43.1197 228.57 42.8609 229.562 43.1231 229.934C43.4351 230.376 44.3959 230.655 44.999 230.553C58.9387 228.19 72.8538 225.674 86.8182 223.471C88.4968 223.206 90.7195 224.175 92.1997 225.249C98.9805 230.169 105.317 235.747 112.327 240.293C120.289 245.457 129.161 248.98 138.324 251.51C147.001 253.905 155.869 255.443 164.912 254.697C172.713 254.054 180.499 253.127 188.251 252.035C190.594 251.705 191.215 252.612 191.806 254.462C193.436 259.561 195.187 264.622 196.906 269.692C198.193 273.486 199.632 277.237 200.691 281.093C200.884 281.796 199.713 283.565 198.93 283.737C192.455 285.157 185.968 286.915 179.398 287.408C170.611 288.068 161.709 288.223 152.921 287.633C137.685 286.61 123.26 281.999 109.6 275.335C100.369 270.833 91.6631 265.252 82.4339 260.746C79.53 259.328 75.6942 259.563 72.277 259.505C62.1893 259.335 52.0977 259.374 42.0077 259.373C28.8435 259.372 15.6787 259.345 2.51597 259.492C-0.0122686 259.521 -0.563214 259.158 0.541277 256.701C6.88113 242.594 13.0867 228.426 19.3783 214.297C23.0231 206.112 26.7438 197.961 30.5158 189.558Z" fill="#565759"/>
    <path d="M120.911 50.3468C123.034 56.5142 121.348 56.6317 113.768 60.4084C104.462 64.7695 100.166 68.0233 92.8338 75.209C91.0698 76.9376 89.6753 76.1987 88.1584 74.9101C82.3552 69.9804 76.4989 65.1128 70.7148 60.1609C65.1168 55.3682 65.2384 55.4332 70.504 50.4203C81.3463 40.0982 93.6263 31.9412 107.089 25.4795C109.131 24.499 110.665 24.7413 111.433 26.8614C113.864 33.574 118.512 43.3798 120.911 50.3468Z" fill="#D11C5A"/>
    <path d="M177.289 42.9242C176.078 49.3341 174.556 48.6 166.102 48.1207C155.859 47.2934 150.516 47.9888 140.589 50.5933C138.2 51.2199 137.355 49.8865 136.676 48.0151C134.077 40.8553 131.402 33.7232 128.831 26.5536C126.342 19.6148 126.416 19.7315 133.472 17.989C148.002 14.4011 162.707 13.4067 177.6 14.471C179.86 14.6324 181.072 15.6036 180.689 17.8258C179.476 24.8618 178.656 35.6834 177.289 42.9242Z" fill="#1A71B5"/>
    <path d="M229.786 65.4723C225.418 70.3145 224.5 68.8945 217.531 64.0808C209.217 58.0386 204.293 55.8488 194.462 52.9006C192.097 52.1913 192.069 50.6126 192.463 48.6609C193.969 41.1942 195.396 33.7111 196.931 26.2503C198.417 19.0297 198.419 19.1677 205.35 21.3561C219.621 25.8621 232.694 32.6743 244.856 41.3417C246.701 42.6569 247.231 44.1174 245.748 45.8151C241.051 51.1904 234.721 60.0024 229.786 65.4723Z" fill="#26A4DA"/>
    <path d="M264.163 109.378C258.031 111.591 257.889 109.906 254.007 102.375C249.516 93.1266 246.203 88.8746 238.918 81.6408C237.166 79.9005 237.884 78.4947 239.15 76.9586C243.993 71.0817 248.773 65.1526 253.639 59.2945C258.348 53.625 258.285 53.7476 263.369 58.9445C273.838 69.6453 282.165 81.8155 288.814 95.1929C289.823 97.2227 289.603 98.7607 287.495 99.5593C280.822 102.088 271.09 106.878 264.163 109.378Z" fill="#EE8E1E"/>
    <path d="M271.363 164.086C264.934 163.011 265.635 161.472 265.935 153.004C266.546 142.739 265.738 137.409 262.927 127.532C262.25 125.156 263.564 124.282 265.42 123.563C272.519 120.812 279.588 117.985 286.697 115.262C293.577 112.626 293.462 112.702 295.352 119.724C299.243 134.184 300.547 148.875 299.798 163.797C299.685 166.062 298.74 167.295 296.512 166.958C289.456 165.893 278.627 165.301 271.363 164.086Z" fill="#E85828"/>
    <path d="M251.847 215.47C246.753 211.399 248.114 210.397 252.495 203.145C258.02 194.476 259.907 189.426 262.255 179.428C262.819 177.023 264.392 176.9 266.363 177.175C273.902 178.229 281.453 179.202 288.988 180.285C296.28 181.333 296.143 181.343 294.378 188.398C290.745 202.926 284.739 216.395 276.827 229.065C275.627 230.988 274.202 231.605 272.419 230.226C266.774 225.86 257.601 220.068 251.847 215.47Z" fill="#36AD47"/>
    <path d="M208.069 251.417C205.665 245.354 207.344 245.159 214.743 241.038C223.839 236.255 227.982 232.807 234.977 225.292C236.66 223.485 238.087 224.159 239.661 225.376C245.684 230.034 251.757 234.628 257.762 239.309C263.574 243.84 263.45 243.781 258.419 249.03C248.062 259.839 236.169 268.551 223.017 275.624C221.021 276.697 219.478 276.525 218.614 274.443C215.877 267.849 210.785 258.267 208.069 251.417Z" fill="#87BE3E"/>
</svg>
